<svg height="531" viewBox="0 0 521 531" width="521" xmlns="http://www.w3.org/2000/svg" xmlns:xlink="http://www.w3.org/1999/xlink"><mask id="a" fill="#fff"><path d="m231.624557 463.003655c-127.922711 0-231.624557-103.646898-231.624557-231.501827 0-127.85493 103.701846-231.501828 231.624557-231.501828s231.624558 103.646898 231.624558 231.501828c0 127.854929-103.701847 231.501827-231.624558 231.501827zm1.100354-67.08604c91.460181 0 165.603306-74.10384 165.603306-165.515559s-74.143125-165.515558-165.603306-165.515558c-91.46018 0-165.6033053 74.103839-165.6033053 165.515558s74.1431253 165.515559 165.6033053 165.515559z" fill="#fff" fill-rule="evenodd"/></mask><g fill="none" fill-rule="evenodd" transform="translate(27 10)"><g transform="translate(0 45)"><path d="m231.624557 463.003655c-127.922711 0-231.624557-103.646898-231.624557-231.501827 0-127.85493 103.701846-231.501828 231.624557-231.501828s231.624558 103.646898 231.624558 231.501828c0 127.854929-103.701847 231.501827-231.624558 231.501827zm1.100354-67.08604c91.460181 0 165.603306-74.10384 165.603306-165.515559s-74.143125-165.515558-165.603306-165.515558c-91.46018 0-165.6033053 74.103839-165.6033053 165.515558s74.1431253 165.515559 165.6033053 165.515559z" fill="#d8d8d8" transform="translate(1.375443 1.374714)"/><path d="m233 465.753083c-128.682347 0-233-104.262379-233-232.876542 0-128.614162 104.317653-232.876541 233-232.876541s233 104.262379 233 232.876541c0 128.614163-104.317653 232.876542-233 232.876542zm1.100354-69.835468c90.700545 0 164.227863-73.488359 164.227863-164.140845 0-90.652485-73.527318-164.1408441-164.227863-164.1408441-90.700544 0-164.2278629 73.4883591-164.2278629 164.1408441 0 90.652486 73.5273189 164.140845 164.2278629 164.140845z" stroke="#fff" stroke-width="2.75"/></g><g mask="url(#a)" transform="translate(1.375443 46.374714)"><g fill-rule="nonzero" stroke="#fff" stroke-width="2.75" transform="translate(-60.476574 -60.591871)"><path d="m293.201485 292.643584-174.681228-174.588671-62.7201887 110.527001z" fill="#59189f"/><path d="m352.707351 245.136328-174.61801-174.5717313-62.737253 110.5560403z" fill="#b5287a" transform="matrix(.8660254 .5 -.5 .8660254 110.279268 -95.866908)"/><path d="m428.099539 233.684948-174.571732-174.6180097-62.720636 110.5853377z" fill="#eb3323" transform="matrix(.5 .8660254 -.8660254 .5 281.491963 -194.806495)"/><path d="m498.290812 261.309549-174.58867-174.6812274-62.686956 110.5855964z" fill="#ee6f2d" transform="matrix(0 1 -1 0 553.621935 -205.684063)"/><path d="m545.748866 320.518415-174.651888-174.698167-62.669891 110.556557z" fill="#f19837" transform="matrix(-.5 .8660254 -.8660254 -.5 842.562528 -20.11504)"/><path d="m557.357585 395.562488-174.698166-174.651888-62.686508 110.527259z" fill="#f6c644" transform="matrix(-.8660254 .5 -.5 -.8660254 972.678769 355.844597)"/><path d="m529.824366 466.783005-174.681228-174.588671-62.720189 110.527001z" fill="#fffd54" transform="matrix(-1 0 0 -1 822.247316 758.97734)"/><path d="m470.51058 514.484463-174.618009-174.571731-62.737254 110.55604z" fill="#99c43c" transform="matrix(-.8660254 -.5 .5 -.8660254 442.929922 973.079911)"/><path d="m395.458255 525.78085-174.571731-174.61801-62.720637 110.585338z" fill="#4fa931" transform="matrix(-.5 -.8660254 .8660254 -.5 35.49035 897.434053)"/><path d="m324.371015 498.494409-174.58867-174.681228-62.686956 110.585597z" fill="#45a1c3" transform="matrix(0 -1 1 0 -205.420593 616.886997)"/><path d="m276.82157 439.265647-174.651888-174.698167-62.6698915 110.556557z" fill="#2564af" transform="matrix(.5 -.8660254 .8660254 .5 -225.688344 312.929449)"/><path d="m265.175058 364.074659-174.6981675-174.651888-62.6865079 110.527259z" fill="#001a9e" transform="matrix(.8660254 -.5 .5 .8660254 -118.749394 110.318657)"/></g></g><path d="m173.008689 16.7770089h-4.010791l-1.015076-2.7961681h-7.080779l-1.039835 2.7961681h-4.010791l6.387556-16.50481554h4.406918zm-5.991428-5.8892745-2.574829-7.10177221-2.574829 7.10177221zm22.30693 5.8892745v-16.50481554h-3.515631v10.36809254l-7.650213-10.36809254h-3.614663v16.50481554h3.515631v-10.76401013l7.873034 10.76401013zm18.667509 0h-4.010791l-1.015077-2.7961681h-7.080779l-1.039835 2.7961681h-4.010791l6.387556-16.50481554h4.406919zm-5.991428-5.8892745-2.574829-7.10177221-2.574829 7.10177221zm18.023801 5.8892745v-3.0931063h-6.981747v-13.41170924h-3.515632v16.50481554zm10.274557.2969382c-4.976351 0-8.615773-3.5632585-8.615773-8.53697353 0-4.97371504 3.639422-8.53697357 8.615773-8.53697357 5.00111 0 8.640532 3.56325853 8.640532 8.53697357 0 4.97371503-3.639422 8.53697353-8.640532 8.53697353zm0-3.1178512c3.045231 0 5.025868-2.3507608 5.025868-5.41912233 0-3.09310637-1.980637-5.41912235-5.025868-5.41912235-3.04523 0-5.001109 2.32601598-5.001109 5.41912235 0 3.06836153 1.955879 5.41912233 5.001109 5.41912233zm19.113153 3.1425961c2.995714 0 5.347721-1.2372426 7.031263-3.1178512v-6.33468186h-7.873034v3.06836146h4.357402v1.9795881c-.668465.6186213-2.054911 1.2619874-3.515631 1.2619874-2.995715 0-5.174416-2.3012711-5.174416-5.41912233 0-3.11785122 2.178701-5.41912235 5.174416-5.41912235 1.757816 0 3.16902.98979403 3.911759 2.15280203l2.92144-1.58367046c-1.237898-1.95484323-3.391842-3.68698279-6.833199-3.68698279-4.827804 0-8.789079 3.31581002-8.789079 8.53697357 0 5.19641873 3.961275 8.56171843 8.789079 8.56171843zm17.652432-.0247449c-4.976352 0-8.615773-3.5632585-8.615773-8.53697353 0-4.97371504 3.639421-8.53697357 8.615773-8.53697357 5.00111 0 8.640531 3.56325853 8.640531 8.53697357 0 4.97371503-3.639421 8.53697353-8.640531 8.53697353zm0-3.1178512c3.04523 0 5.025868-2.3507608 5.025868-5.41912233 0-3.09310637-1.980638-5.41912235-5.025868-5.41912235s-5.00111 2.32601598-5.00111 5.41912235c0 3.06836153 1.95588 5.41912233 5.00111 5.41912233zm18.568477 3.1178512c5.025868 0 7.452149-2.7961681 7.452149-6.9038134v-9.89794034h-3.589906v9.79896094c0 2.3012712-1.312172 3.8849416-3.862243 3.8849416s-3.887001-1.5836704-3.887001-3.8849416v-9.79896094h-3.565148v9.92268524c0 4.0581555 2.426281 6.8790685 7.452149 6.8790685zm16.563081 0c4.456435 0 6.610378-2.2765262 6.610378-5.2953981 0-6.16146784-9.482302-4.40458342-9.482302-7.02753762 0-.98979404.841771-1.65790501 2.352007-1.65790501 1.683542 0 3.466116.56913157 4.803046 1.80637411l1.95588-2.57346449c-1.634026-1.50943591-3.812728-2.30127114-6.437072-2.30127114-3.887002 0-6.263767 2.27652629-6.263767 5.02320474 0 6.21095761 9.507061 4.20662466 9.507061 7.12651711 0 .9403043-.940803 1.8311189-2.871925 1.8311189-2.277733 0-4.085065-1.0145389-5.248689-2.2270366l-1.906364 2.6724439c1.534994 1.5589256 3.812727 2.6229542 6.981747 2.6229542z" fill="#10162f" fill-rule="nonzero"/><g stroke="#10162f" stroke-width="3" transform="matrix(.8660254 .5 -.5 .8660254 83.051816 334.117197)"><ellipse cx="17.330579" cy="17.321396" rx="17.330579" ry="17.321396"/><ellipse cx="182.624587" cy="17.817351" rx="17.330579" ry="17.321396"/><ellipse cx="103.821593" cy="40.249508" rx="17.330579" ry="17.321396"/><g stroke-linecap="square"><path d="m34.166547 22.269935 51.23347 11.707972"/><path d="m121.16011 34.296202 44.719512-10.566266"/></g></g></g></svg>