<svg height="531" viewBox="0 0 521 531" width="521" xmlns="http://www.w3.org/2000/svg" xmlns:xlink="http://www.w3.org/1999/xlink"><mask id="a" fill="#fff"><path d="m231.624557 463.140332c-127.922711 0-231.624557-103.677494-231.624557-231.570166 0-127.892671 103.701846-231.570166 231.624557-231.570166s231.624558 103.677495 231.624558 231.570166c0 127.892672-103.701847 231.570166-231.624558 231.570166zm1.100354-67.105844c91.460181 0 165.603306-74.125714 165.603306-165.564418 0-91.438703-74.143125-165.5644177-165.603306-165.5644177-91.46018 0-165.6033053 74.1257147-165.6033053 165.5644177 0 91.438704 74.1431253 165.564418 165.6033053 165.564418z" fill="#fff" fill-rule="evenodd"/></mask><g fill="none" fill-rule="evenodd" transform="translate(27 10)"><g transform="translate(0 45.109428)"><path d="m231.624557 463.140332c-127.922711 0-231.624557-103.677494-231.624557-231.570166 0-127.892671 103.701846-231.570166 231.624557-231.570166s231.624558 103.677495 231.624558 231.570166c0 127.892672-103.701847 231.570166-231.624558 231.570166zm1.100354-67.105844c91.460181 0 165.603306-74.125714 165.603306-165.564418 0-91.438703-74.143125-165.5644177-165.603306-165.5644177-91.46018 0-165.6033053 74.1257147-165.6033053 165.5644177 0 91.438704 74.1431253 165.564418 165.6033053 165.564418z" fill="#d8d8d8" transform="translate(1.375443 1.37512)"/><path d="m233 465.890572c-128.682347 0-233-104.293157-233-232.945286s104.317653-232.945286 233-232.945286 233 104.293157 233 232.945286-104.317653 232.945286-233 232.945286zm1.100354-69.856084c90.700545 0 164.227863-73.510052 164.227863-164.189298s-73.527318-164.1892982-164.227863-164.1892982c-90.700544 0-164.2278629 73.5100522-164.2278629 164.1892982s73.5273189 164.189298 164.2278629 164.189298z" stroke="#fff" stroke-width="2.75"/></g><g mask="url(#a)" transform="translate(1.375443 46.484548)"><g fill-rule="nonzero" stroke="#fff" stroke-width="2.75" transform="translate(-60.476574 -60.609757)"><path d="m293.201485 292.729971-174.681228-174.640208-62.7201887 110.559628z" fill="#59189f"/><path d="m352.724315 245.220415-174.653211-174.632701-62.727752 110.572498z" fill="#b5287a" transform="matrix(.8660254 .5 -.5 .8660254 110.306621 -95.861784)"/><path d="m428.129961 233.753884-174.632701-174.6532114-62.720387 110.5854814z" fill="#eb3323" transform="matrix(.5 .8660254 -.8660254 .5 281.536451 -194.780881)"/><path d="m498.325834 261.360905-174.640209-174.6812283-62.70546 110.5855963z" fill="#ee6f2d" transform="matrix(0 1 -1 0 553.67329 -205.632708)"/><path d="m545.77804 320.578413-174.668225-174.688735-62.697899 110.572727z" fill="#f19837" transform="matrix(-.5 .8660254 -.8660254 -.5 842.629076 -20.024032)"/><path d="m557.370367 395.661584-174.688734-174.668225-62.705262 110.559743z" fill="#f6c644" transform="matrix(-.8660254 .5 -.5 -.8660254 972.739387 356.010211)"/><path d="m529.824366 466.920798-174.681228-174.640209-62.720189 110.559628z" fill="#fffd54" transform="matrix(-1 0 0 -1 822.247316 759.201386)"/><path d="m470.519316 514.63405-174.653211-174.632701-62.727752 110.572498z" fill="#99c43c" transform="matrix(-.8660254 -.5 .5 -.8660254 442.862694 973.300101)"/><path d="m395.488553 525.919761-174.632701-174.653211-62.720388 110.585481z" fill="#4fa931" transform="matrix(-.5 -.8660254 .8660254 -.5 35.385199 897.615964)"/><path d="m324.406037 498.61578-174.640209-174.681227-62.7054605 110.585596z" fill="#45a1c3" transform="matrix(0 -1 1 0 -205.541965 617.008369)"/><path d="m276.83674 439.368932-174.668225-174.688735-62.697898 110.572727z" fill="#2564af" transform="matrix(.5 -.8660254 .8660254 .5 -225.785377 312.977386)"/><path d="m265.171591 364.16456-174.6887349-174.668225-62.7052621 110.559743z" fill="#001a9e" transform="matrix(.8660254 -.5 .5 .8660254 -118.791343 110.325569)"/></g></g><path d="m134.245962 17.0789873c3.639422 0 5.719091-2.0049246 6.907474-4.0593535l-3.020473-1.4603772c-.693223 1.3613686-2.178701 2.4009591-3.887001 2.4009591-2.995714 0-5.174415-2.3019504-5.174415-5.42072205 0-3.11877159 2.178701-5.42072205 5.174415-5.42072205 1.7083 0 3.193778 1.06434268 3.887001 2.40095908l3.020473-1.48512933c-1.163625-2.05442891-3.268052-4.03460135-6.907474-4.03460135-4.951594 0-8.789079 3.46530177-8.789079 8.53949365 0 5.07419185 3.837485 8.53949365 8.789079 8.53949365zm16.835419 0c-4.976351 0-8.615773-3.5643104-8.615773-8.53949365 0-4.97518326 3.639422-8.53949365 8.615773-8.53949365 5.00111 0 8.640532 3.56431039 8.640532 8.53949365 0 4.97518325-3.639422 8.53949365-8.640532 8.53949365zm0-3.1187716c3.045231 0 5.025868-2.3514548 5.025868-5.42072205 0-3.09401944-1.980637-5.42072205-5.025868-5.42072205-3.04523 0-5.001109 2.32670261-5.001109 5.42072205 0 3.06926725 1.955879 5.42072205 5.001109 5.42072205zm29.01634 2.8217457v-16.50968769h-4.951593l-4.010792 9.97511869-4.010791-9.97511869h-4.926835v16.50968769h3.515631v-11.55925659l4.654498 11.55925659h1.534995l4.654498-11.55925659v11.55925659zm6.783684 0h-3.515632v-16.50968769h7.724487c3.589905 0 5.545785 2.42571124 5.545785 5.32171344 0 2.87125004-1.980638 5.32171345-5.545785 5.32171345h-4.208855zm3.738453-8.96028026c1.386447 0 2.426281-.86632544 2.426281-2.22769399 0-1.38612071-1.039834-2.227694-2.426281-2.227694h-3.738453v4.45538799zm18.692267 8.96028026v-3.0940194h-6.981747v-13.41566829h-3.515632v16.50968769zm14.136801 0v-3.0940194h-8.17013v-3.73757548h7.996824v-3.09401944h-7.996824v-3.49005393h8.17013v-3.09401944h-11.685762v16.50968769zm20.648146 0v-16.50968769h-4.951594l-4.010791 9.97511869-4.010791-9.97511869h-4.926836v16.50968769h3.515632v-11.55925659l4.654498 11.55925659h1.534994l4.654498-11.55925659v11.55925659zm14.953813 0v-3.0940194h-8.170129v-3.73757548h7.996824v-3.09401944h-7.996824v-3.49005393h8.170129v-3.09401944h-11.685761v16.50968769zm17.528643 0v-16.50968769h-3.515632v10.37115319l-7.650212-10.37115319h-3.614664v16.50968769h3.515632v-10.76718761l7.873034 10.76718761zm10.621169 0v-13.41566825h4.803046v-3.09401944h-13.17124v3.09401944h4.827804v13.41566825zm22.455478 0h-4.010791l-1.015077-2.7969935h-7.080779l-1.039835 2.7969935h-4.010791l6.387556-16.50968769h4.406919zm-5.991429-5.891013-2.574829-7.10386861-2.574828 7.10386861zm20.895726 5.891013h-4.035549l-3.243294-5.8662608h-2.574829v5.8662608h-3.515631v-16.50968769h7.724486c3.441358 0 5.545785 2.25244615 5.545785 5.32171344 0 2.92075435-1.832089 4.48014015-3.614663 4.90092675zm-6.164734-8.96028026c1.411204 0 2.475797-.84157328 2.475797-2.22769399s-1.064593-2.227694-2.475797-2.227694h-3.688938v4.45538799zm16.835419 8.96028026v-6.7573384l6.313282-9.75234929h-4.010791l-4.060307 6.63357768-4.109823-6.63357768h-4.010791l6.362798 9.75234929v6.7573384z" fill="#10162f" fill-rule="nonzero"/><g stroke="#10162f" stroke-width="3"><ellipse cx="89.678867" cy="360.286875" rx="17.330579" ry="17.326509"/><ellipse cx="379.622196" cy="196.922649" rx="17.330579" ry="17.326509"/><path d="m104.533648 349.285917 260.233766-143.562502" stroke-linecap="square"/></g></g></svg>