<?xml version="1.0" encoding="UTF-8"?>
<svg width="521px" height="531px" viewBox="0 0 521 531" version="1.1" xmlns="http://www.w3.org/2000/svg" xmlns:xlink="http://www.w3.org/1999/xlink">
    <title>Monochromatic</title>
    <defs>
        <path d="M231.624557,463.140332 C103.701846,463.140332 0,359.462838 0,231.570166 C0,103.677495 103.701846,0 231.624557,0 C359.547268,0 463.249115,103.677495 463.249115,231.570166 C463.249115,359.462838 359.547268,463.140332 231.624557,463.140332 Z M232.724911,301.976297 C272.225986,301.976297 304.247934,269.961869 304.247934,230.47007 C304.247934,190.978272 272.225986,158.963843 232.724911,158.963843 C193.223837,158.963843 161.201889,190.978272 161.201889,230.47007 C161.201889,269.961869 193.223837,301.976297 232.724911,301.976297 Z" id="path-1"></path>
        <path d="M231.624557,463.140332 C103.701846,463.140332 0,359.462838 0,231.570166 C0,103.677495 103.701846,0 231.624557,0 C359.547268,0 463.249115,103.677495 463.249115,231.570166 C463.249115,359.462838 359.547268,463.140332 231.624557,463.140332 Z M232.724911,301.976297 C272.225986,301.976297 304.247934,269.961869 304.247934,230.47007 C304.247934,190.978272 272.225986,158.963843 232.724911,158.963843 C193.223837,158.963843 161.201889,190.978272 161.201889,230.47007 C161.201889,269.961869 193.223837,301.976297 232.724911,301.976297 Z" id="path-3"></path>
        <path d="M231.624557,463.140332 C103.701846,463.140332 0,359.462838 0,231.570166 C0,103.677495 103.701846,0 231.624557,0 C359.547268,0 463.249115,103.677495 463.249115,231.570166 C463.249115,359.462838 359.547268,463.140332 231.624557,463.140332 Z M232.724911,301.976297 C272.225986,301.976297 304.247934,269.961869 304.247934,230.47007 C304.247934,190.978272 272.225986,158.963843 232.724911,158.963843 C193.223837,158.963843 161.201889,190.978272 161.201889,230.47007 C161.201889,269.961869 193.223837,301.976297 232.724911,301.976297 Z" id="path-5"></path>
    </defs>
    <g id="Monochromatic" stroke="none" stroke-width="1" fill="none" fill-rule="evenodd">
        <g id="Group-3" transform="translate(28.000000, 10.000000)">
            <g id="monochromatic" transform="translate(0.000000, 45.109428)">
                <g id="Combined-Shape">
                    <g id="path-1-link" transform="translate(1.375443, 1.375120)" fill="#D8D8D8" fill-opacity="0.200000018">
                        <path d="M231.624557,463.140332 C103.701846,463.140332 0,359.462838 0,231.570166 C0,103.677495 103.701846,0 231.624557,0 C359.547268,0 463.249115,103.677495 463.249115,231.570166 C463.249115,359.462838 359.547268,463.140332 231.624557,463.140332 Z M232.724911,301.976297 C272.225986,301.976297 304.247934,269.961869 304.247934,230.47007 C304.247934,190.978272 272.225986,158.963843 232.724911,158.963843 C193.223837,158.963843 161.201889,190.978272 161.201889,230.47007 C161.201889,269.961869 193.223837,301.976297 232.724911,301.976297 Z" id="path-1"></path>
                    </g>
                    <path d="M233,465.890572 C104.317653,465.890572 0,361.597415 0,232.945286 C0,104.293157 104.317653,0 233,0 C361.682347,0 466,104.293157 466,232.945286 C466,361.597415 361.682347,465.890572 233,465.890572 Z M234.100354,301.976297 C272.841793,301.976297 304.247934,270.577531 304.247934,231.84519 C304.247934,193.112849 272.841793,161.714083 234.100354,161.714083 C195.358915,161.714083 163.952774,193.112849 163.952774,231.84519 C163.952774,270.577531 195.358915,301.976297 234.100354,301.976297 Z" id="Shape" stroke="#FFFFFF" stroke-width="2.75"></path>
                </g>
                <g id="Group-Clipped" transform="translate(1.375443, 1.375120)">
                    <mask id="mask-2" fill="white">
                        <use xlink:href="#path-1"></use>
                    </mask>
                    <g id="path-1"></g>
                    <g id="Group" mask="url(#mask-2)">
                        <g transform="translate(-60.463560, -60.622684)" id="Path-2">
                            <polygon id="Path" stroke="#FFFFFF" stroke-width="2.75" fill="#59189F" fill-rule="nonzero" points="293.188472 292.742898 118.507244 118.10269 55.7870548 228.662318"></polygon>
                            <polygon id="Path" stroke="#FFFFFF" stroke-width="2.75" fill="#B5287A" fill-rule="nonzero" transform="translate(234.020820, 157.916991) rotate(30.000000) translate(-234.020820, -157.916991) " points="352.711301 245.233342 178.05809 70.6006408 115.330339 181.173138"></polygon>
                            <polygon id="Path" stroke="#FFFFFF" stroke-width="2.75" fill="#EB3323" fill-rule="nonzero" transform="translate(309.440404, 146.440205) rotate(60.000000) translate(-309.440404, -146.440205) " points="428.116948 233.76681 253.484247 59.1135994 190.763859 169.699081"></polygon>
                            <polygon id="Path" stroke="#FFFFFF" stroke-width="2.75" fill="#EE6F2D" fill-rule="nonzero" transform="translate(379.639986, 174.033217) rotate(90.000000) translate(-379.639986, -174.033217) " points="498.31282 261.373831 323.672612 86.6926035 260.967151 197.2782"></polygon>
                            <polygon id="Path" stroke="#FFFFFF" stroke-width="2.75" fill="#F19837" fill-rule="nonzero" transform="translate(427.081965, 233.246973) rotate(120.000000) translate(-427.081965, -233.246973) " points="545.765026 320.59134 371.096801 145.902605 308.398903 256.475332"></polygon>
                            <polygon id="Path" stroke="#FFFFFF" stroke-width="2.75" fill="#F6C644" fill-rule="nonzero" transform="translate(438.660355, 308.340399) rotate(150.000000) translate(-438.660355, -308.340399) " points="557.357353 395.674511 382.66862 221.006286 319.963357 331.566029"></polygon>
                            <polygon id="Path" stroke="#FFFFFF" stroke-width="2.75" fill="#FFFD54" fill-rule="nonzero" transform="translate(411.110644, 379.613620) rotate(-180.000000) translate(-411.110644, -379.613620) " points="529.811353 466.933724 355.130125 292.293516 292.409936 402.853144"></polygon>
                            <polygon id="Path" stroke="#FFFFFF" stroke-width="2.75" fill="#99C43C" fill-rule="nonzero" transform="translate(351.815821, 427.330627) rotate(-150.000000) translate(-351.815821, -427.330627) " points="470.506302 514.646977 295.853091 340.014276 233.12534 450.586774"></polygon>
                            <polygon id="Path" stroke="#FFFFFF" stroke-width="2.75" fill="#4FA931" fill-rule="nonzero" transform="translate(276.798995, 438.606082) rotate(-120.000000) translate(-276.798995, -438.606082) " points="395.47554 525.932687 220.842838 351.279476 158.122451 461.864958"></polygon>
                            <polygon id="Path" stroke="#FFFFFF" stroke-width="2.75" fill="#45A1C3" fill-rule="nonzero" transform="translate(205.720188, 411.288093) rotate(-90.000000) translate(-205.720188, -411.288093) " points="324.393023 498.628707 149.752815 323.947479 87.0473539 434.533076"></polygon>
                            <polygon id="Path" stroke="#FFFFFF" stroke-width="2.75" fill="#2564AF" fill-rule="nonzero" transform="translate(158.140665, 352.037492) rotate(-60.000000) translate(-158.140665, -352.037492) " points="276.823727 439.381859 102.155502 264.693124 39.4576034 375.265851"></polygon>
                            <polygon id="Path" stroke="#FFFFFF" stroke-width="2.75" fill="#001A9E" fill-rule="nonzero" transform="translate(146.461629, 276.843375) rotate(-30.000000) translate(-146.461629, -276.843375) " points="265.158577 364.177487 90.4698425 189.509262 27.7645804 300.069005"></polygon>
                        </g>
                    </g>
                </g>
                <g id="Oval-Clipped" transform="translate(1.375443, 1.375120)">
                    <mask id="mask-4" fill="white">
                        <use xlink:href="#path-3"></use>
                    </mask>
                    <g id="path-1"></g>
                    <g id="Oval" mask="url(#mask-4)">
                        <g transform="translate(65.746163, 63.530533)">
                            <g id="path-3-link" stroke="none" stroke-width="1" fill-rule="evenodd" transform="translate(1.375443, 1.375120)" fill-opacity="0.4">
                                <ellipse id="path-3" fill="#FFFFFF" cx="165.603306" cy="165.564418" rx="165.603306" ry="165.564418"></ellipse>
                            </g>
                            <ellipse id="Oval" stroke="#FFFFFF" stroke-width="2.75" cx="166.978749" cy="166.939538" rx="166.978749" ry="166.939538"></ellipse>
                        </g>
                    </g>
                </g>
                <g id="Oval-Clipped" transform="translate(1.375443, 1.375120)">
                    <mask id="mask-6" fill="white">
                        <use xlink:href="#path-5"></use>
                    </mask>
                    <g id="path-1"></g>
                    <g id="Oval" mask="url(#mask-6)">
                        <g transform="translate(120.763872, 118.535323)">
                            <g id="path-4-link" stroke="none" stroke-width="1" fill-rule="evenodd" transform="translate(1.375443, 1.375120)" fill-opacity="0.5">
                                <ellipse id="path-4" fill="#FFFFFF" cx="110.585596" cy="110.559628" rx="110.585596" ry="110.559628"></ellipse>
                            </g>
                            <ellipse id="Oval" stroke="#FFFFFF" stroke-width="2.75" cx="111.961039" cy="111.934748" rx="111.961039" ry="111.934748"></ellipse>
                        </g>
                    </g>
                </g>
            </g>
            <path d="M140.848087,16.7819614 L140.848087,0.272273711 L135.896494,0.272273711 L131.885702,10.2473924 L127.874911,0.272273711 L122.948076,0.272273711 L122.948076,16.7819614 L126.463707,16.7819614 L126.463707,5.22270481 L131.118205,16.7819614 L132.6532,16.7819614 L137.307698,5.22270481 L137.307698,16.7819614 L140.848087,16.7819614 Z M151.939658,17.0789873 C146.963306,17.0789873 143.323884,13.5146769 143.323884,8.53949365 C143.323884,3.56431039 146.963306,-2.84217094e-14 151.939658,-2.84217094e-14 C156.940767,-2.84217094e-14 160.580189,3.56431039 160.580189,8.53949365 C160.580189,13.5146769 156.940767,17.0789873 151.939658,17.0789873 Z M151.939658,13.9602157 C154.984888,13.9602157 156.965525,11.6087609 156.965525,8.53949365 C156.965525,5.44547421 154.984888,3.1187716 151.939658,3.1187716 C148.894427,3.1187716 146.938548,5.44547421 146.938548,8.53949365 C146.938548,11.6087609 148.894427,13.9602157 151.939658,13.9602157 Z M177.836494,16.7819614 L177.836494,0.272273711 L174.320862,0.272273711 L174.320862,10.6434269 L166.670649,0.272273711 L163.055986,0.272273711 L163.055986,16.7819614 L166.571617,16.7819614 L166.571617,6.01477379 L174.444652,16.7819614 L177.836494,16.7819614 Z M188.928064,17.0789873 C183.951712,17.0789873 180.31229,13.5146769 180.31229,8.53949365 C180.31229,3.56431039 183.951712,-2.84217094e-14 188.928064,-2.84217094e-14 C193.929174,-2.84217094e-14 197.568595,3.56431039 197.568595,8.53949365 C197.568595,13.5146769 193.929174,17.0789873 188.928064,17.0789873 Z M188.928064,13.9602157 C191.973294,13.9602157 193.953932,11.6087609 193.953932,8.53949365 C193.953932,5.44547421 191.973294,3.1187716 188.928064,3.1187716 C185.882834,3.1187716 183.926954,5.44547421 183.926954,8.53949365 C183.926954,11.6087609 185.882834,13.9602157 188.928064,13.9602157 Z M208.041216,17.0789873 C211.680638,17.0789873 213.760307,15.0740627 214.948689,13.0196338 L211.928217,11.5592566 C211.234994,12.9206252 209.749516,13.9602157 208.041216,13.9602157 C205.045502,13.9602157 202.8668,11.6582653 202.8668,8.53949365 C202.8668,5.42072206 205.045502,3.1187716 208.041216,3.1187716 C209.749516,3.1187716 211.234994,4.18311428 211.928217,5.51973068 L214.948689,4.03460135 C213.785065,1.98017244 211.680638,-2.84217094e-14 208.041216,-2.84217094e-14 C203.089622,-2.84217094e-14 199.252137,3.46530177 199.252137,8.53949365 C199.252137,13.6136855 203.089622,17.0789873 208.041216,17.0789873 Z M231.907898,16.7819614 L231.907898,0.272273711 L228.367509,0.272273711 L228.367509,6.75733846 L220.568749,6.75733846 L220.568749,0.272273711 L217.053117,0.272273711 L217.053117,16.7819614 L220.568749,16.7819614 L220.568749,9.8513579 L228.367509,9.8513579 L228.367509,16.7819614 L231.907898,16.7819614 Z M248.520496,16.7819614 L244.484947,16.7819614 L241.241653,10.9157006 L238.666824,10.9157006 L238.666824,16.7819614 L235.151192,16.7819614 L235.151192,0.272273711 L242.875679,0.272273711 C246.317037,0.272273711 248.421464,2.52471986 248.421464,5.59398715 C248.421464,8.5147415 246.589374,10.0741273 244.8068,10.4949139 L248.520496,16.7819614 Z M242.355762,7.82168114 C243.766966,7.82168114 244.831558,6.98010786 244.831558,5.59398715 C244.831558,4.20786644 243.766966,3.36629315 242.355762,3.36629315 L238.666824,3.36629315 L238.666824,7.82168114 L242.355762,7.82168114 Z M258.894085,17.0789873 C253.917733,17.0789873 250.278312,13.5146769 250.278312,8.53949365 C250.278312,3.56431039 253.917733,-2.84217094e-14 258.894085,-2.84217094e-14 C263.895195,-2.84217094e-14 267.534616,3.56431039 267.534616,8.53949365 C267.534616,13.5146769 263.895195,17.0789873 258.894085,17.0789873 Z M258.894085,13.9602157 C261.939315,13.9602157 263.919953,11.6087609 263.919953,8.53949365 C263.919953,5.44547421 261.939315,3.1187716 258.894085,3.1187716 C255.848855,3.1187716 253.892975,5.44547421 253.892975,8.53949365 C253.892975,11.6087609 255.848855,13.9602157 258.894085,13.9602157 Z M287.910425,16.7819614 L287.910425,0.272273711 L282.958831,0.272273711 L278.94804,10.2473924 L274.937249,0.272273711 L270.010413,0.272273711 L270.010413,16.7819614 L273.526045,16.7819614 L273.526045,5.22270481 L278.180543,16.7819614 L279.715537,16.7819614 L284.370035,5.22270481 L284.370035,16.7819614 L287.910425,16.7819614 Z M306.577934,16.7819614 L302.567143,16.7819614 L301.552066,13.9849679 L294.471287,13.9849679 L293.431452,16.7819614 L289.420661,16.7819614 L295.808217,0.272273711 L300.215136,0.272273711 L306.577934,16.7819614 Z M300.586505,10.8909484 L298.011677,3.78707979 L295.436848,10.8909484 L300.586505,10.8909484 Z M315.466045,16.7819614 L315.466045,3.36629315 L320.269091,3.36629315 L320.269091,0.272273711 L307.097851,0.272273711 L307.097851,3.36629315 L311.925655,3.36629315 L311.925655,16.7819614 L315.466045,16.7819614 Z M326.037698,16.7819614 L326.037698,0.272273711 L322.522066,0.272273711 L322.522066,16.7819614 L326.037698,16.7819614 Z M337.302574,17.0789873 C340.941995,17.0789873 343.021665,15.0740627 344.210047,13.0196338 L341.189575,11.5592566 C340.496352,12.9206252 339.010874,13.9602157 337.302574,13.9602157 C334.30686,13.9602157 332.128158,11.6582653 332.128158,8.53949365 C332.128158,5.42072206 334.30686,3.1187716 337.302574,3.1187716 C339.010874,3.1187716 340.496352,4.18311428 341.189575,5.51973068 L344.210047,4.03460135 C343.046423,1.98017244 340.941995,-2.84217094e-14 337.302574,-2.84217094e-14 C332.35098,-2.84217094e-14 328.513495,3.46530177 328.513495,8.53949365 C328.513495,13.6136855 332.35098,17.0789873 337.302574,17.0789873 Z" id="MONOCHROMATIC" fill="#10162F" fill-rule="nonzero"></path>
        </g>
    </g>
</svg>