<svg height="531" viewBox="0 0 521 531" width="521" xmlns="http://www.w3.org/2000/svg" xmlns:xlink="http://www.w3.org/1999/xlink"><mask id="a" fill="#fff"><path d="m231.624557 463.003655c-127.922711 0-231.624557-103.646898-231.624557-231.501827 0-127.85493 103.701846-231.501828 231.624557-231.501828s231.624558 103.646898 231.624558 231.501828c0 127.854929-103.701847 231.501827-231.624558 231.501827zm1.100354-67.08604c91.460181 0 165.603306-74.10384 165.603306-165.515559s-74.143125-165.515558-165.603306-165.515558c-91.46018 0-165.6033053 74.103839-165.6033053 165.515558s74.1431253 165.515559 165.6033053 165.515559z" fill="#fff" fill-rule="evenodd"/></mask><g fill="none" fill-rule="evenodd" transform="translate(27 10)"><g transform="translate(0 45.246917)"><path d="m231.624557 463.003655c-127.922711 0-231.624557-103.646898-231.624557-231.501827 0-127.85493 103.701846-231.501828 231.624557-231.501828s231.624558 103.646898 231.624558 231.501828c0 127.854929-103.701847 231.501827-231.624558 231.501827zm1.100354-67.08604c91.460181 0 165.603306-74.10384 165.603306-165.515559s-74.143125-165.515558-165.603306-165.515558c-91.46018 0-165.6033053 74.103839-165.6033053 165.515558s74.1431253 165.515559 165.6033053 165.515559z" fill="#d8d8d8" transform="translate(1.375443 1.374714)"/><path d="m233 465.753083c-128.682347 0-233-104.262379-233-232.876542 0-128.614162 104.317653-232.876541 233-232.876541s233 104.262379 233 232.876541c0 128.614163-104.317653 232.876542-233 232.876542zm1.100354-69.835468c90.700545 0 164.227863-73.488359 164.227863-164.140845 0-90.652485-73.527318-164.1408441-164.227863-164.1408441-90.700544 0-164.2278629 73.4883591-164.2278629 164.1408441 0 90.652486 73.5273189 164.140845 164.2278629 164.140845z" stroke="#fff" stroke-width="2.75"/></g><g mask="url(#a)" transform="translate(1.375443 46.621631)"><g fill-rule="nonzero" stroke="#fff" stroke-width="2.75" transform="translate(-60.476574 -60.591871)"><path d="m293.201485 292.643584-174.681228-174.588671-62.7201887 110.527001z" fill="#59189f"/><path d="m352.707351 245.136328-174.61801-174.5717313-62.737253 110.5560403z" fill="#b5287a" transform="matrix(.8660254 .5 -.5 .8660254 110.279268 -95.866908)"/><path d="m428.099539 233.684948-174.571732-174.6180097-62.720636 110.5853377z" fill="#eb3323" transform="matrix(.5 .8660254 -.8660254 .5 281.491963 -194.806495)"/><path d="m498.290812 261.309549-174.58867-174.6812274-62.686956 110.5855964z" fill="#ee6f2d" transform="matrix(0 1 -1 0 553.621935 -205.684063)"/><path d="m545.748866 320.518415-174.651888-174.698167-62.669891 110.556557z" fill="#f19837" transform="matrix(-.5 .8660254 -.8660254 -.5 842.562528 -20.11504)"/><path d="m557.357585 395.562488-174.698166-174.651888-62.686508 110.527259z" fill="#f6c644" transform="matrix(-.8660254 .5 -.5 -.8660254 972.678769 355.844597)"/><path d="m529.824366 466.783005-174.681228-174.588671-62.720189 110.527001z" fill="#fffd54" transform="matrix(-1 0 0 -1 822.247316 758.97734)"/><path d="m470.51058 514.484463-174.618009-174.571731-62.737254 110.55604z" fill="#99c43c" transform="matrix(-.8660254 -.5 .5 -.8660254 442.929922 973.079911)"/><path d="m395.458255 525.78085-174.571731-174.61801-62.720637 110.585338z" fill="#4fa931" transform="matrix(-.5 -.8660254 .8660254 -.5 35.49035 897.434053)"/><path d="m324.371015 498.494409-174.58867-174.681228-62.686956 110.585597z" fill="#45a1c3" transform="matrix(0 -1 1 0 -205.420593 616.886997)"/><path d="m276.82157 439.265647-174.651888-174.698167-62.6698915 110.556557z" fill="#2564af" transform="matrix(.5 -.8660254 .8660254 .5 -225.688344 312.929449)"/><path d="m265.175058 364.074659-174.6981675-174.651888-62.6865079 110.527259z" fill="#001a9e" transform="matrix(.8660254 -.5 .5 .8660254 -118.749394 110.318657)"/></g></g><path d="m195.772267 16.7770089v-13.41170917h4.803046v-3.09310637h-13.17124v3.09310637h4.827804v13.41170917zm20.425324 0h-4.035548l-3.243294-5.8645296h-2.574829v5.8645296h-3.515632v-16.50481554h7.724486c3.441358 0 5.545786 2.25178143 5.545786 5.32014295 0 2.91989241-1.83209 4.47881799-3.614664 4.89948049zm-6.164734-8.95763601c1.411204 0 2.475797-.84132493 2.475797-2.22703658s-1.064593-2.22703658-2.475797-2.22703658h-3.688937v4.45407316zm12.230437 8.95763601v-16.50481554h-3.515632v16.50481554zm18.667509 0h-4.010791l-1.015077-2.7961681h-7.080779l-1.039835 2.7961681h-4.010791l6.387556-16.50481554h4.406919zm-5.991429-5.8892745-2.574829-7.10177221-2.574828 7.10177221zm14.037769 5.8892745h-6.511346v-16.50481554h6.511346c5.174415 0 8.764321 3.29106517 8.764321 8.26478021 0 4.97371503-3.589906 8.24003533-8.764321 8.24003533zm0-3.0931063c3.268052 0 5.174415-2.3507609 5.174415-5.14692903 0-2.91989241-1.782573-5.17167384-5.174415-5.17167384h-2.995714v10.31860287zm14.780508 3.0931063v-16.50481554h-3.515632v16.50481554zm11.264876.2969382c3.639421 0 5.71909-2.0043329 6.907473-4.0581555l-3.020472-1.4599462c-.693223 1.3609668-2.178702 2.4002505-3.887001 2.4002505-2.995715 0-5.174416-2.3012711-5.174416-5.41912233 0-3.11785122 2.178701-5.41912235 5.174416-5.41912235 1.708299 0 3.193778 1.06402859 3.887001 2.40025054l3.020472-1.48469106c-1.163625-2.05382263-3.268052-4.0334107-6.907473-4.0334107-4.951594 0-8.78908 3.46427913-8.78908 8.53697357 0 5.07269443 3.837486 8.53697353 8.78908 8.53697353z" fill="#10162f" fill-rule="nonzero"/><g stroke="#10162f" stroke-width="3" transform="matrix(.8660254 .5 -.5 .8660254 181.872213 39.704361)"><ellipse cx="17.330579" cy="265.869676" rx="17.330579" ry="17.321396"/><ellipse cx="162.577332" cy="17.321396" rx="17.330579" ry="17.321396"/><ellipse cx="306.173554" cy="265.869676" rx="17.330579" ry="17.321396"/><g stroke-linecap="square"><path d="m32.18536 254.871965 130.66706-218.029631"/><path d="m32.18536 254.871965h259.45065"/><path d="m164.502952 35.742562 127.133058 219.129403"/></g></g></g></svg>